<?xml version="1.0" standalone="no"?>
<!DOCTYPE svg PUBLIC "-//W3C//DTD SVG 20010904//EN"
 "http://www.w3.org/TR/2001/REC-SVG-20010904/DTD/svg10.dtd">
<svg version="1.0" xmlns="http://www.w3.org/2000/svg"
 width="805.000000pt" height="805.000000pt" viewBox="0 0 805.000000 805.000000"
 preserveAspectRatio="xMidYMid meet">
<metadata>
Created by potrace 1.14, written by Peter Selinger 2001-2017
</metadata>
<g transform="translate(0.000000,805.000000) scale(0.100000,-0.100000)"
fill="#000000" stroke="none">
<path d="M3838 8025 c-2 -1 -48 -5 -103 -9 -55 -3 -116 -8 -135 -11 -19 -2
-57 -7 -85 -10 -50 -6 -84 -11 -140 -21 -16 -3 -42 -7 -57 -9 -15 -2 -35 -6
-45 -9 -10 -3 -34 -8 -53 -11 -19 -3 -51 -10 -70 -15 -19 -5 -46 -11 -60 -14
-122 -23 -446 -128 -595 -191 -144 -61 -359 -166 -363 -176 -2 -5 -8 -9 -14
-9 -9 0 -113 -57 -166 -92 -15 -10 -36 -22 -47 -27 -11 -5 -46 -28 -78 -50
-32 -23 -62 -41 -67 -41 -4 0 -10 -3 -12 -8 -1 -4 -34 -30 -73 -57 -255 -180
-534 -444 -762 -720 -114 -138 -326 -448 -366 -535 -4 -8 -16 -30 -27 -48 -84
-138 -264 -546 -294 -667 -2 -5 -8 -22 -14 -36 -9 -22 -27 -81 -38 -124 -54
-211 -77 -305 -79 -325 -1 -14 -5 -35 -9 -48 -4 -12 -9 -37 -11 -55 -5 -39
-13 -94 -19 -124 -3 -12 -7 -50 -11 -84 -3 -34 -8 -76 -10 -93 -23 -170 -23
-583 0 -786 11 -106 30 -243 41 -300 3 -14 7 -36 10 -50 9 -52 25 -126 34
-160 5 -19 14 -57 20 -85 7 -27 16 -61 21 -75 5 -14 10 -34 12 -45 2 -11 6
-27 9 -35 3 -8 22 -67 43 -130 100 -308 282 -678 468 -955 53 -78 172 -240
211 -286 17 -19 40 -47 52 -62 127 -165 397 -423 625 -597 57 -44 109 -84 114
-88 35 -28 208 -139 304 -196 313 -186 667 -331 1031 -424 139 -36 176 -44
245 -56 11 -2 47 -8 80 -14 84 -15 133 -23 185 -28 25 -2 61 -6 80 -9 166 -23
685 -23 798 -1 13 3 51 8 85 11 34 3 78 8 97 10 35 4 47 6 145 25 28 5 62 12
78 15 15 3 39 7 55 10 15 3 88 22 162 41 74 20 140 37 145 38 6 2 17 6 25 9 8
3 53 18 100 33 177 56 598 240 608 266 2 4 12 8 23 8 10 0 19 4 19 9 0 5 8 11
18 14 17 6 73 37 127 71 76 49 229 149 239 157 6 5 52 39 101 76 50 36 92 69
95 72 3 4 19 17 35 30 162 124 456 425 615 631 19 25 38 50 43 55 65 84 197
282 248 370 19 33 39 67 44 77 6 9 21 38 35 65 14 26 27 50 30 53 9 9 109 228
155 339 41 100 131 359 138 398 2 10 11 43 20 73 9 30 18 69 21 85 3 17 9 46
15 65 6 19 13 49 15 65 3 17 10 55 16 85 6 30 13 71 16 90 3 19 7 46 10 60 3
14 7 50 10 80 3 30 7 66 10 80 25 142 25 709 -1 861 -2 13 -6 47 -9 74 -3 28
-8 61 -10 75 -3 14 -7 43 -10 65 -3 22 -8 51 -11 65 -3 14 -8 39 -11 55 -3 17
-14 68 -25 115 -11 47 -22 94 -24 105 -3 11 -12 45 -20 75 -8 30 -18 66 -21
80 -3 13 -10 30 -16 37 -6 7 -8 13 -4 13 8 0 -92 280 -134 375 -66 148 -132
288 -141 295 -3 3 -9 14 -13 24 -10 28 -143 251 -183 308 -18 26 -33 52 -33
57 0 5 -4 11 -8 13 -4 2 -28 32 -52 68 -25 36 -49 70 -55 76 -5 6 -19 23 -30
38 -11 15 -27 36 -35 46 -208 254 -442 487 -665 660 -38 30 -72 57 -75 60 -3
3 -27 21 -55 40 -27 19 -51 38 -53 42 -2 4 -8 8 -13 8 -5 0 -31 15 -57 33 -71
50 -227 145 -312 189 -41 22 -79 44 -84 49 -6 5 -16 9 -24 9 -8 0 -26 8 -40
18 -15 10 -52 29 -82 42 -30 13 -83 36 -118 52 -34 15 -68 28 -75 28 -7 0 -17
4 -23 9 -11 11 -296 108 -374 128 -30 8 -84 21 -120 29 -36 8 -72 18 -80 21
-8 4 -22 7 -30 8 -8 1 -40 7 -70 13 -30 6 -68 14 -85 17 -16 3 -39 7 -50 9
-18 3 -71 11 -153 22 -18 2 -56 6 -85 9 -28 3 -74 8 -102 11 -48 5 -502 13
-507 9z"/>
</g>
</svg>
